<mxfile host="app.diagrams.net" agent="Mozilla/5.0 (Macintosh; Intel Mac OS X 10_15_7) AppleWebKit/537.36 (KHTML, like Gecko) Chrome/131.0.0.0 Safari/537.36" version="24.8.4">
  <diagram name="第 1 页" id="i_x9QhXuIShAMBmTnTVo">
    <mxGraphModel dx="1058" dy="581" grid="0" gridSize="10" guides="1" tooltips="1" connect="1" arrows="1" fold="1" page="0" pageScale="1" pageWidth="827" pageHeight="1169" math="0" shadow="0">
      <root>
        <mxCell id="0" />
        <mxCell id="1" parent="0" />
        <mxCell id="hNcdMBy9ng1oUq9hT3ED-13" style="edgeStyle=orthogonalEdgeStyle;rounded=0;orthogonalLoop=1;jettySize=auto;html=1;exitX=0.5;exitY=1;exitDx=0;exitDy=0;entryX=0.5;entryY=0;entryDx=0;entryDy=0;" edge="1" parent="1" source="hNcdMBy9ng1oUq9hT3ED-1" target="hNcdMBy9ng1oUq9hT3ED-2">
          <mxGeometry relative="1" as="geometry" />
        </mxCell>
        <mxCell id="hNcdMBy9ng1oUq9hT3ED-1" value="port forwarding" style="rounded=1;whiteSpace=wrap;html=1;" vertex="1" parent="1">
          <mxGeometry x="587" y="275" width="88" height="22" as="geometry" />
        </mxCell>
        <mxCell id="hNcdMBy9ng1oUq9hT3ED-7" style="edgeStyle=orthogonalEdgeStyle;rounded=0;orthogonalLoop=1;jettySize=auto;html=1;exitX=1;exitY=0.5;exitDx=0;exitDy=0;entryX=0.5;entryY=0;entryDx=0;entryDy=0;" edge="1" parent="1" source="hNcdMBy9ng1oUq9hT3ED-2" target="hNcdMBy9ng1oUq9hT3ED-3">
          <mxGeometry relative="1" as="geometry" />
        </mxCell>
        <mxCell id="hNcdMBy9ng1oUq9hT3ED-9" value="是" style="edgeLabel;html=1;align=center;verticalAlign=middle;resizable=0;points=[];" vertex="1" connectable="0" parent="hNcdMBy9ng1oUq9hT3ED-7">
          <mxGeometry x="-0.3984" y="-3" relative="1" as="geometry">
            <mxPoint as="offset" />
          </mxGeometry>
        </mxCell>
        <mxCell id="hNcdMBy9ng1oUq9hT3ED-8" style="edgeStyle=orthogonalEdgeStyle;rounded=0;orthogonalLoop=1;jettySize=auto;html=1;exitX=0;exitY=0.5;exitDx=0;exitDy=0;entryX=0.5;entryY=0;entryDx=0;entryDy=0;" edge="1" parent="1" source="hNcdMBy9ng1oUq9hT3ED-2" target="hNcdMBy9ng1oUq9hT3ED-4">
          <mxGeometry relative="1" as="geometry" />
        </mxCell>
        <mxCell id="hNcdMBy9ng1oUq9hT3ED-10" value="否" style="edgeLabel;html=1;align=center;verticalAlign=middle;resizable=0;points=[];" vertex="1" connectable="0" parent="hNcdMBy9ng1oUq9hT3ED-8">
          <mxGeometry x="-0.2874" relative="1" as="geometry">
            <mxPoint as="offset" />
          </mxGeometry>
        </mxCell>
        <mxCell id="hNcdMBy9ng1oUq9hT3ED-2" value="application client &lt;br&gt;在 ssh client 侧" style="rhombus;whiteSpace=wrap;html=1;fontSize=9;" vertex="1" parent="1">
          <mxGeometry x="579" y="337" width="104" height="64" as="geometry" />
        </mxCell>
        <mxCell id="hNcdMBy9ng1oUq9hT3ED-11" style="edgeStyle=orthogonalEdgeStyle;rounded=0;orthogonalLoop=1;jettySize=auto;html=1;exitX=0.5;exitY=1;exitDx=0;exitDy=0;" edge="1" parent="1" source="hNcdMBy9ng1oUq9hT3ED-3" target="hNcdMBy9ng1oUq9hT3ED-5">
          <mxGeometry relative="1" as="geometry" />
        </mxCell>
        <mxCell id="hNcdMBy9ng1oUq9hT3ED-3" value="local forwarding" style="rounded=0;whiteSpace=wrap;html=1;" vertex="1" parent="1">
          <mxGeometry x="755.5" y="408" width="82" height="34" as="geometry" />
        </mxCell>
        <mxCell id="hNcdMBy9ng1oUq9hT3ED-12" style="edgeStyle=orthogonalEdgeStyle;rounded=0;orthogonalLoop=1;jettySize=auto;html=1;exitX=0.5;exitY=1;exitDx=0;exitDy=0;" edge="1" parent="1" source="hNcdMBy9ng1oUq9hT3ED-4" target="hNcdMBy9ng1oUq9hT3ED-6">
          <mxGeometry relative="1" as="geometry" />
        </mxCell>
        <mxCell id="hNcdMBy9ng1oUq9hT3ED-4" value="remote forwarding" style="rounded=0;whiteSpace=wrap;html=1;" vertex="1" parent="1">
          <mxGeometry x="420" y="405" width="89" height="34" as="geometry" />
        </mxCell>
        <mxCell id="hNcdMBy9ng1oUq9hT3ED-21" style="edgeStyle=orthogonalEdgeStyle;rounded=0;orthogonalLoop=1;jettySize=auto;html=1;exitX=1;exitY=0.5;exitDx=0;exitDy=0;" edge="1" parent="1" source="hNcdMBy9ng1oUq9hT3ED-5" target="hNcdMBy9ng1oUq9hT3ED-20">
          <mxGeometry relative="1" as="geometry" />
        </mxCell>
        <mxCell id="hNcdMBy9ng1oUq9hT3ED-32" value="是" style="edgeLabel;html=1;align=center;verticalAlign=middle;resizable=0;points=[];" vertex="1" connectable="0" parent="hNcdMBy9ng1oUq9hT3ED-21">
          <mxGeometry x="-0.7597" relative="1" as="geometry">
            <mxPoint as="offset" />
          </mxGeometry>
        </mxCell>
        <mxCell id="hNcdMBy9ng1oUq9hT3ED-22" style="edgeStyle=orthogonalEdgeStyle;rounded=0;orthogonalLoop=1;jettySize=auto;html=1;exitX=0;exitY=0.5;exitDx=0;exitDy=0;entryX=0.5;entryY=0;entryDx=0;entryDy=0;" edge="1" parent="1" source="hNcdMBy9ng1oUq9hT3ED-5" target="hNcdMBy9ng1oUq9hT3ED-19">
          <mxGeometry relative="1" as="geometry" />
        </mxCell>
        <mxCell id="hNcdMBy9ng1oUq9hT3ED-33" value="否" style="edgeLabel;html=1;align=center;verticalAlign=middle;resizable=0;points=[];" vertex="1" connectable="0" parent="hNcdMBy9ng1oUq9hT3ED-22">
          <mxGeometry x="-0.6596" y="-3" relative="1" as="geometry">
            <mxPoint x="6" y="1" as="offset" />
          </mxGeometry>
        </mxCell>
        <mxCell id="hNcdMBy9ng1oUq9hT3ED-5" value="application client &lt;br&gt;与 ssh client 同一 host" style="rhombus;whiteSpace=wrap;html=1;fontSize=9;" vertex="1" parent="1">
          <mxGeometry x="738" y="487" width="117" height="64" as="geometry" />
        </mxCell>
        <mxCell id="hNcdMBy9ng1oUq9hT3ED-25" style="edgeStyle=orthogonalEdgeStyle;rounded=0;orthogonalLoop=1;jettySize=auto;html=1;exitX=1;exitY=0.5;exitDx=0;exitDy=0;entryX=0.5;entryY=0;entryDx=0;entryDy=0;" edge="1" parent="1" source="hNcdMBy9ng1oUq9hT3ED-6" target="hNcdMBy9ng1oUq9hT3ED-24">
          <mxGeometry relative="1" as="geometry" />
        </mxCell>
        <mxCell id="hNcdMBy9ng1oUq9hT3ED-34" value="是" style="edgeLabel;html=1;align=center;verticalAlign=middle;resizable=0;points=[];" vertex="1" connectable="0" parent="hNcdMBy9ng1oUq9hT3ED-25">
          <mxGeometry x="-0.7934" y="1" relative="1" as="geometry">
            <mxPoint x="1" as="offset" />
          </mxGeometry>
        </mxCell>
        <mxCell id="hNcdMBy9ng1oUq9hT3ED-26" style="edgeStyle=orthogonalEdgeStyle;rounded=0;orthogonalLoop=1;jettySize=auto;html=1;exitX=0;exitY=0.5;exitDx=0;exitDy=0;entryX=0.5;entryY=0;entryDx=0;entryDy=0;" edge="1" parent="1" source="hNcdMBy9ng1oUq9hT3ED-6" target="hNcdMBy9ng1oUq9hT3ED-23">
          <mxGeometry relative="1" as="geometry" />
        </mxCell>
        <mxCell id="hNcdMBy9ng1oUq9hT3ED-35" value="否" style="edgeLabel;html=1;align=center;verticalAlign=middle;resizable=0;points=[];" vertex="1" connectable="0" parent="hNcdMBy9ng1oUq9hT3ED-26">
          <mxGeometry x="-0.7583" relative="1" as="geometry">
            <mxPoint x="1" as="offset" />
          </mxGeometry>
        </mxCell>
        <mxCell id="hNcdMBy9ng1oUq9hT3ED-6" value="application client &lt;br&gt;与 ssh server 同一 host" style="rhombus;whiteSpace=wrap;html=1;fontSize=9;" vertex="1" parent="1">
          <mxGeometry x="405.5" y="483" width="117" height="64" as="geometry" />
        </mxCell>
        <mxCell id="hNcdMBy9ng1oUq9hT3ED-30" style="edgeStyle=orthogonalEdgeStyle;rounded=0;orthogonalLoop=1;jettySize=auto;html=1;exitX=0.5;exitY=1;exitDx=0;exitDy=0;entryX=0.5;entryY=0;entryDx=0;entryDy=0;" edge="1" parent="1" source="hNcdMBy9ng1oUq9hT3ED-19" target="hNcdMBy9ng1oUq9hT3ED-27">
          <mxGeometry relative="1" as="geometry" />
        </mxCell>
        <mxCell id="hNcdMBy9ng1oUq9hT3ED-19" value="有 bastion host" style="rounded=0;whiteSpace=wrap;html=1;" vertex="1" parent="1">
          <mxGeometry x="663" y="606" width="89" height="34" as="geometry" />
        </mxCell>
        <mxCell id="hNcdMBy9ng1oUq9hT3ED-31" style="edgeStyle=orthogonalEdgeStyle;rounded=0;orthogonalLoop=1;jettySize=auto;html=1;exitX=0.5;exitY=1;exitDx=0;exitDy=0;entryX=0.5;entryY=0;entryDx=0;entryDy=0;" edge="1" parent="1" source="hNcdMBy9ng1oUq9hT3ED-20" target="hNcdMBy9ng1oUq9hT3ED-27">
          <mxGeometry relative="1" as="geometry" />
        </mxCell>
        <mxCell id="hNcdMBy9ng1oUq9hT3ED-20" value="无 bastion host" style="rounded=0;whiteSpace=wrap;html=1;" vertex="1" parent="1">
          <mxGeometry x="840" y="606" width="89" height="34" as="geometry" />
        </mxCell>
        <mxCell id="hNcdMBy9ng1oUq9hT3ED-28" style="edgeStyle=orthogonalEdgeStyle;rounded=0;orthogonalLoop=1;jettySize=auto;html=1;exitX=0.5;exitY=1;exitDx=0;exitDy=0;entryX=0.5;entryY=0;entryDx=0;entryDy=0;" edge="1" parent="1" source="hNcdMBy9ng1oUq9hT3ED-23" target="hNcdMBy9ng1oUq9hT3ED-27">
          <mxGeometry relative="1" as="geometry">
            <mxPoint x="598" y="712" as="targetPoint" />
          </mxGeometry>
        </mxCell>
        <mxCell id="hNcdMBy9ng1oUq9hT3ED-23" value="有 bastion host" style="rounded=0;whiteSpace=wrap;html=1;" vertex="1" parent="1">
          <mxGeometry x="332" y="606" width="89" height="34" as="geometry" />
        </mxCell>
        <mxCell id="hNcdMBy9ng1oUq9hT3ED-29" style="edgeStyle=orthogonalEdgeStyle;rounded=0;orthogonalLoop=1;jettySize=auto;html=1;exitX=0.5;exitY=1;exitDx=0;exitDy=0;entryX=0.5;entryY=0;entryDx=0;entryDy=0;" edge="1" parent="1" source="hNcdMBy9ng1oUq9hT3ED-24" target="hNcdMBy9ng1oUq9hT3ED-27">
          <mxGeometry relative="1" as="geometry">
            <mxPoint x="597" y="710" as="targetPoint" />
          </mxGeometry>
        </mxCell>
        <mxCell id="hNcdMBy9ng1oUq9hT3ED-24" value="无 bastion host" style="rounded=0;whiteSpace=wrap;html=1;" vertex="1" parent="1">
          <mxGeometry x="508" y="606" width="89" height="34" as="geometry" />
        </mxCell>
        <mxCell id="hNcdMBy9ng1oUq9hT3ED-27" value="port forwarding" style="rounded=1;whiteSpace=wrap;html=1;" vertex="1" parent="1">
          <mxGeometry x="587" y="754" width="88" height="22" as="geometry" />
        </mxCell>
      </root>
    </mxGraphModel>
  </diagram>
</mxfile>
